<?xml version="1.0" encoding="utf-8"?>
<!-- Generator: Adobe Illustrator 16.0.0, SVG Export Plug-In . SVG Version: 6.00 Build 0)  -->
<!DOCTYPE svg PUBLIC "-//W3C//DTD SVG 1.1//EN" "http://www.w3.org/Graphics/SVG/1.1/DTD/svg11.dtd">
<svg version="1.1" id="Layer_1" xmlns="http://www.w3.org/2000/svg" xmlns:xlink="http://www.w3.org/1999/xlink" x="0px" y="0px"
	 width="128px" height="128px" viewBox="0 0 128 128" enable-background="new 0 0 128 128" xml:space="preserve">
<path fill="#498AC8" d="M127.412,22.798c0,8.512-6.92,15.421-15.436,15.421c-8.517,0-15.421-6.909-15.421-15.421
	s6.904-15.43,15.421-15.43C120.492,7.368,127.412,14.286,127.412,22.798z"/>
<path fill="#498AC8" d="M89.767,22.798c0,6.818-5.533,12.338-12.341,12.338S65.08,29.616,65.08,22.798
	c0-6.811,5.538-12.339,12.346-12.339S89.767,15.987,89.767,22.798z"/>
<path fill="#498AC8" d="M58.891,22.798c0,5.442-4.426,9.872-9.872,9.872c-5.445,0-9.872-4.43-9.872-9.872
	c0-5.459,4.427-9.866,9.872-9.866C54.464,12.932,58.891,17.339,58.891,22.798z"/>
<path fill="#498AC8" d="M32.298,22.798c0,4.35-3.538,7.903-7.89,7.903c-4.358,0-7.895-3.554-7.895-7.903
	c0-4.353,3.537-7.907,7.895-7.907C28.761,14.891,32.298,18.445,32.298,22.798z"/>
<path fill="#498AC8" d="M118.858,65.109c0,8.506-6.894,15.418-15.413,15.418c-8.524,0-15.426-6.912-15.426-15.418
	c0-8.537,6.901-15.436,15.426-15.436C111.965,49.674,118.858,56.573,118.858,65.109z"/>
<path fill="#498AC8" d="M81.222,65.109c0,6.805-5.521,12.324-12.332,12.324c-6.819,0-12.344-5.52-12.344-12.324
	c0-6.833,5.525-12.344,12.344-12.344C75.7,52.765,81.222,58.276,81.222,65.109z"/>
<path fill="#498AC8" d="M50.346,65.109c0,5.439-4.418,9.867-9.871,9.867c-5.451,0-9.866-4.428-9.866-9.867
	c0-5.464,4.416-9.883,9.866-9.883C45.928,55.226,50.346,59.645,50.346,65.109z"/>
<path fill="#498AC8" d="M23.764,65.109c0,4.355-3.54,7.891-7.895,7.891c-4.366,0-7.912-3.535-7.912-7.891
	c0-4.375,3.545-7.895,7.912-7.895C20.224,57.214,23.764,60.735,23.764,65.109z"/>
<path fill="#498AC8" d="M111.515,105.215c0,8.512-6.913,15.436-15.429,15.436c-8.52,0-15.425-6.924-15.425-15.436
	c0-8.504,6.905-15.426,15.425-15.426C104.602,89.789,111.515,96.711,111.515,105.215z"/>
<path fill="#498AC8" d="M73.867,105.215c0,6.809-5.522,12.354-12.333,12.354c-6.827,0-12.35-5.545-12.35-12.354
	c0-6.805,5.522-12.34,12.35-12.34C68.345,92.875,73.867,98.41,73.867,105.215z"/>
<path fill="#498AC8" d="M42.982,105.215c0,5.465-4.407,9.869-9.861,9.869c-5.453,0-9.869-4.404-9.869-9.869
	c0-5.445,4.416-9.875,9.869-9.875C38.575,95.34,42.982,99.77,42.982,105.215z"/>
<path fill="#498AC8" d="M16.403,105.215c0,4.359-3.519,7.902-7.89,7.902s-7.907-3.543-7.907-7.902c0-4.365,3.536-7.896,7.907-7.896
	S16.403,100.85,16.403,105.215z"/>
</svg>
